ISO-10303-21;
HEADER;
FILE_DESCRIPTION(('FreeCAD Model'),'2;1');
FILE_NAME('Open CASCADE Shape Model','2026-09-10T09:16:06',('Author'),(
    ''),'Open CASCADE STEP processor 7.8','FreeCAD','Unknown');
FILE_SCHEMA(('AUTOMOTIVE_DESIGN { 1 0 10303 214 1 1 1 1 }'));
ENDSEC;
DATA;
#1 = APPLICATION_PROTOCOL_DEFINITION('international standard',
  'automotive_design',2000,#2);
#2 = APPLICATION_CONTEXT(
  'core data for automotive mechanical design processes');
#3 = SHAPE_DEFINITION_REPRESENTATION(#4,#10);
#4 = PRODUCT_DEFINITION_SHAPE('','',#5);
#5 = PRODUCT_DEFINITION('design','',#6,#9);
#6 = PRODUCT_DEFINITION_FORMATION('','',#7);
#7 = PRODUCT('corpo','corpo','',(#8));
#8 = PRODUCT_CONTEXT('',#2,'mechanical');
#9 = PRODUCT_DEFINITION_CONTEXT('part definition',#2,'design');
#10 = ADVANCED_BREP_SHAPE_REPRESENTATION('',(#11,#15),#526);
#11 = AXIS2_PLACEMENT_3D('',#12,#13,#14);
#12 = CARTESIAN_POINT('',(0.,0.,0.));
#13 = DIRECTION('',(0.,0.,1.));
#14 = DIRECTION('',(1.,0.,-0.));
#15 = MANIFOLD_SOLID_BREP('',#16);
#16 = CLOSED_SHELL('',(#17,#57,#124,#149,#225,#261,#286,#310,#370,#387,
    #403,#428,#450,#467,#484,#496,#513));
#17 = ADVANCED_FACE('',(#18),#52,.F.);
#18 = FACE_BOUND('',#19,.F.);
#19 = EDGE_LOOP('',(#20,#30,#38,#46));
#20 = ORIENTED_EDGE('',*,*,#21,.F.);
#21 = EDGE_CURVE('',#22,#24,#26,.T.);
#22 = VERTEX_POINT('',#23);
#23 = CARTESIAN_POINT('',(-3.330669073875E-15,50.,30.));
#24 = VERTEX_POINT('',#25);
#25 = CARTESIAN_POINT('',(-1.110223024625E-15,50.,10.));
#26 = LINE('',#27,#28);
#27 = CARTESIAN_POINT('',(-5.551115123126E-15,50.,50.));
#28 = VECTOR('',#29,1.);
#29 = DIRECTION('',(1.110223024625E-16,-1.110223024625E-16,-1.));
#30 = ORIENTED_EDGE('',*,*,#31,.T.);
#31 = EDGE_CURVE('',#22,#32,#34,.T.);
#32 = VERTEX_POINT('',#33);
#33 = CARTESIAN_POINT('',(15.,50.,30.));
#34 = LINE('',#35,#36);
#35 = CARTESIAN_POINT('',(-3.330669073875E-15,50.,30.));
#36 = VECTOR('',#37,1.);
#37 = DIRECTION('',(1.,-1.110223024625E-16,1.110223024625E-16));
#38 = ORIENTED_EDGE('',*,*,#39,.T.);
#39 = EDGE_CURVE('',#32,#40,#42,.T.);
#40 = VERTEX_POINT('',#41);
#41 = CARTESIAN_POINT('',(15.,50.,10.));
#42 = LINE('',#43,#44);
#43 = CARTESIAN_POINT('',(15.,50.,50.));
#44 = VECTOR('',#45,1.);
#45 = DIRECTION('',(1.110223024625E-16,-1.110223024625E-16,-1.));
#46 = ORIENTED_EDGE('',*,*,#47,.F.);
#47 = EDGE_CURVE('',#24,#40,#48,.T.);
#48 = LINE('',#49,#50);
#49 = CARTESIAN_POINT('',(-1.110223024625E-15,50.,10.));
#50 = VECTOR('',#51,1.);
#51 = DIRECTION('',(1.,-1.110223024625E-16,1.110223024625E-16));
#52 = PLANE('',#53);
#53 = AXIS2_PLACEMENT_3D('',#54,#55,#56);
#54 = CARTESIAN_POINT('',(-5.551115123126E-15,50.,50.));
#55 = DIRECTION('',(1.110223024625E-16,1.,-1.110223024625E-16));
#56 = DIRECTION('',(1.110223024625E-16,-1.110223024625E-16,-1.));
#57 = ADVANCED_FACE('',(#58,#108),#119,.T.);
#58 = FACE_BOUND('',#59,.T.);
#59 = EDGE_LOOP('',(#60,#61,#70,#78,#86,#94,#102));
#60 = ORIENTED_EDGE('',*,*,#21,.F.);
#61 = ORIENTED_EDGE('',*,*,#62,.T.);
#62 = EDGE_CURVE('',#22,#63,#65,.T.);
#63 = VERTEX_POINT('',#64);
#64 = CARTESIAN_POINT('',(-5.551115123126E-15,70.,50.));
#65 = CIRCLE('',#66,20.);
#66 = AXIS2_PLACEMENT_3D('',#67,#68,#69);
#67 = CARTESIAN_POINT('',(-1.813364273554E-15,70.,30.));
#68 = DIRECTION('',(-1.,1.110223024625E-16,-1.110223024625E-16));
#69 = DIRECTION('',(1.110223024625E-16,1.,0.));
#70 = ORIENTED_EDGE('',*,*,#71,.F.);
#71 = EDGE_CURVE('',#72,#63,#74,.T.);
#72 = VERTEX_POINT('',#73);
#73 = CARTESIAN_POINT('',(-5.551115123126E-15,100.,50.));
#74 = LINE('',#75,#76);
#75 = CARTESIAN_POINT('',(-5.551115123126E-15,100.,50.));
#76 = VECTOR('',#77,1.);
#77 = DIRECTION('',(0.,-1.,1.110223024625E-16));
#78 = ORIENTED_EDGE('',*,*,#79,.F.);
#79 = EDGE_CURVE('',#80,#72,#82,.T.);
#80 = VERTEX_POINT('',#81);
#81 = CARTESIAN_POINT('',(0.,100.,0.));
#82 = LINE('',#83,#84);
#83 = CARTESIAN_POINT('',(-1.110223024625E-15,100.,10.));
#84 = VECTOR('',#85,1.);
#85 = DIRECTION('',(-1.110223024625E-16,1.110223024625E-16,1.));
#86 = ORIENTED_EDGE('',*,*,#87,.T.);
#87 = EDGE_CURVE('',#80,#88,#90,.T.);
#88 = VERTEX_POINT('',#89);
#89 = CARTESIAN_POINT('',(0.,0.,0.));
#90 = LINE('',#91,#92);
#91 = CARTESIAN_POINT('',(0.,100.,0.));
#92 = VECTOR('',#93,1.);
#93 = DIRECTION('',(0.,-1.,0.));
#94 = ORIENTED_EDGE('',*,*,#95,.T.);
#95 = EDGE_CURVE('',#88,#96,#98,.T.);
#96 = VERTEX_POINT('',#97);
#97 = CARTESIAN_POINT('',(0.,0.,10.));
#98 = LINE('',#99,#100);
#99 = CARTESIAN_POINT('',(0.,0.,0.));
#100 = VECTOR('',#101,1.);
#101 = DIRECTION('',(0.,0.,1.));
#102 = ORIENTED_EDGE('',*,*,#103,.F.);
#103 = EDGE_CURVE('',#24,#96,#104,.T.);
#104 = LINE('',#105,#106);
#105 = CARTESIAN_POINT('',(0.,100.,10.));
#106 = VECTOR('',#107,1.);
#107 = DIRECTION('',(0.,-1.,0.));
#108 = FACE_BOUND('',#109,.T.);
#109 = EDGE_LOOP('',(#110));
#110 = ORIENTED_EDGE('',*,*,#111,.T.);
#111 = EDGE_CURVE('',#112,#112,#114,.T.);
#112 = VERTEX_POINT('',#113);
#113 = CARTESIAN_POINT('',(-3.330669073875E-15,85.,30.));
#114 = CIRCLE('',#115,15.);
#115 = AXIS2_PLACEMENT_3D('',#116,#117,#118);
#116 = CARTESIAN_POINT('',(-3.330669073875E-15,70.,30.));
#117 = DIRECTION('',(1.,1.232595164408E-32,1.110223024625E-16));
#118 = DIRECTION('',(0.,1.,-1.110223024625E-16));
#119 = PLANE('',#120);
#120 = AXIS2_PLACEMENT_3D('',#121,#122,#123);
#121 = CARTESIAN_POINT('',(-1.813364273554E-15,56.666666666667,
    18.333333333333));
#122 = DIRECTION('',(-1.,-0.,-0.));
#123 = DIRECTION('',(0.,0.,-1.));
#124 = ADVANCED_FACE('',(#125),#144,.T.);
#125 = FACE_BOUND('',#126,.F.);
#126 = EDGE_LOOP('',(#127,#128,#136,#143));
#127 = ORIENTED_EDGE('',*,*,#62,.T.);
#128 = ORIENTED_EDGE('',*,*,#129,.T.);
#129 = EDGE_CURVE('',#63,#130,#132,.T.);
#130 = VERTEX_POINT('',#131);
#131 = CARTESIAN_POINT('',(15.,70.,50.));
#132 = LINE('',#133,#134);
#133 = CARTESIAN_POINT('',(-3.330669073875E-15,70.,50.));
#134 = VECTOR('',#135,1.);
#135 = DIRECTION('',(1.,-1.110223024625E-16,1.110223024625E-16));
#136 = ORIENTED_EDGE('',*,*,#137,.F.);
#137 = EDGE_CURVE('',#32,#130,#138,.T.);
#138 = CIRCLE('',#139,20.);
#139 = AXIS2_PLACEMENT_3D('',#140,#141,#142);
#140 = CARTESIAN_POINT('',(15.,70.,30.));
#141 = DIRECTION('',(-1.,1.110223024625E-16,-1.110223024625E-16));
#142 = DIRECTION('',(1.110223024625E-16,1.,0.));
#143 = ORIENTED_EDGE('',*,*,#31,.F.);
#144 = CYLINDRICAL_SURFACE('',#145,20.);
#145 = AXIS2_PLACEMENT_3D('',#146,#147,#148);
#146 = CARTESIAN_POINT('',(-1.110223024625E-15,70.,30.));
#147 = DIRECTION('',(1.,-1.110223024625E-16,1.110223024625E-16));
#148 = DIRECTION('',(-1.110223024625E-16,-1.,1.110223024625E-16));
#149 = ADVANCED_FACE('',(#150,#184),#220,.T.);
#150 = FACE_BOUND('',#151,.T.);
#151 = EDGE_LOOP('',(#152,#153,#154,#162,#170,#178));
#152 = ORIENTED_EDGE('',*,*,#47,.F.);
#153 = ORIENTED_EDGE('',*,*,#103,.T.);
#154 = ORIENTED_EDGE('',*,*,#155,.T.);
#155 = EDGE_CURVE('',#96,#156,#158,.T.);
#156 = VERTEX_POINT('',#157);
#157 = CARTESIAN_POINT('',(50.,0.,10.));
#158 = LINE('',#159,#160);
#159 = CARTESIAN_POINT('',(0.,0.,10.));
#160 = VECTOR('',#161,1.);
#161 = DIRECTION('',(1.,0.,0.));
#162 = ORIENTED_EDGE('',*,*,#163,.T.);
#163 = EDGE_CURVE('',#156,#164,#166,.T.);
#164 = VERTEX_POINT('',#165);
#165 = CARTESIAN_POINT('',(50.,90.,10.));
#166 = LINE('',#167,#168);
#167 = CARTESIAN_POINT('',(50.,0.,10.));
#168 = VECTOR('',#169,1.);
#169 = DIRECTION('',(0.,1.,0.));
#170 = ORIENTED_EDGE('',*,*,#171,.F.);
#171 = EDGE_CURVE('',#172,#164,#174,.T.);
#172 = VERTEX_POINT('',#173);
#173 = CARTESIAN_POINT('',(15.,90.,10.));
#174 = LINE('',#175,#176);
#175 = CARTESIAN_POINT('',(15.,90.,10.));
#176 = VECTOR('',#177,1.);
#177 = DIRECTION('',(1.,0.,0.));
#178 = ORIENTED_EDGE('',*,*,#179,.F.);
#179 = EDGE_CURVE('',#40,#172,#180,.T.);
#180 = LINE('',#181,#182);
#181 = CARTESIAN_POINT('',(15.,50.,10.));
#182 = VECTOR('',#183,1.);
#183 = DIRECTION('',(0.,1.,-1.110223024625E-16));
#184 = FACE_BOUND('',#185,.T.);
#185 = EDGE_LOOP('',(#186,#197,#205,#214));
#186 = ORIENTED_EDGE('',*,*,#187,.F.);
#187 = EDGE_CURVE('',#188,#190,#192,.T.);
#188 = VERTEX_POINT('',#189);
#189 = CARTESIAN_POINT('',(17.5,15.,10.));
#190 = VERTEX_POINT('',#191);
#191 = CARTESIAN_POINT('',(32.5,15.,10.));
#192 = CIRCLE('',#193,7.5);
#193 = AXIS2_PLACEMENT_3D('',#194,#195,#196);
#194 = CARTESIAN_POINT('',(25.,15.,10.));
#195 = DIRECTION('',(0.,0.,1.));
#196 = DIRECTION('',(1.,0.,0.));
#197 = ORIENTED_EDGE('',*,*,#198,.F.);
#198 = EDGE_CURVE('',#199,#188,#201,.T.);
#199 = VERTEX_POINT('',#200);
#200 = CARTESIAN_POINT('',(17.5,40.,10.));
#201 = LINE('',#202,#203);
#202 = CARTESIAN_POINT('',(17.5,40.,10.));
#203 = VECTOR('',#204,1.);
#204 = DIRECTION('',(0.,-1.,0.));
#205 = ORIENTED_EDGE('',*,*,#206,.F.);
#206 = EDGE_CURVE('',#207,#199,#209,.T.);
#207 = VERTEX_POINT('',#208);
#208 = CARTESIAN_POINT('',(32.5,40.,10.));
#209 = CIRCLE('',#210,7.5);
#210 = AXIS2_PLACEMENT_3D('',#211,#212,#213);
#211 = CARTESIAN_POINT('',(25.,40.,10.));
#212 = DIRECTION('',(0.,0.,1.));
#213 = DIRECTION('',(1.,0.,0.));
#214 = ORIENTED_EDGE('',*,*,#215,.F.);
#215 = EDGE_CURVE('',#190,#207,#216,.T.);
#216 = LINE('',#217,#218);
#217 = CARTESIAN_POINT('',(32.5,15.,10.));
#218 = VECTOR('',#219,1.);
#219 = DIRECTION('',(0.,1.,0.));
#220 = PLANE('',#221);
#221 = AXIS2_PLACEMENT_3D('',#222,#223,#224);
#222 = CARTESIAN_POINT('',(25.,50.,10.));
#223 = DIRECTION('',(0.,0.,1.));
#224 = DIRECTION('',(1.,0.,0.));
#225 = ADVANCED_FACE('',(#226,#245),#256,.T.);
#226 = FACE_BOUND('',#227,.T.);
#227 = EDGE_LOOP('',(#228,#236,#242,#243,#244));
#228 = ORIENTED_EDGE('',*,*,#229,.F.);
#229 = EDGE_CURVE('',#230,#172,#232,.T.);
#230 = VERTEX_POINT('',#231);
#231 = CARTESIAN_POINT('',(15.,90.,50.));
#232 = LINE('',#233,#234);
#233 = CARTESIAN_POINT('',(15.,90.,50.));
#234 = VECTOR('',#235,1.);
#235 = DIRECTION('',(0.,-2.22044604925E-16,-1.));
#236 = ORIENTED_EDGE('',*,*,#237,.T.);
#237 = EDGE_CURVE('',#230,#130,#238,.T.);
#238 = LINE('',#239,#240);
#239 = CARTESIAN_POINT('',(15.,100.,50.));
#240 = VECTOR('',#241,1.);
#241 = DIRECTION('',(0.,-1.,1.110223024625E-16));
#242 = ORIENTED_EDGE('',*,*,#137,.F.);
#243 = ORIENTED_EDGE('',*,*,#39,.T.);
#244 = ORIENTED_EDGE('',*,*,#179,.T.);
#245 = FACE_BOUND('',#246,.T.);
#246 = EDGE_LOOP('',(#247));
#247 = ORIENTED_EDGE('',*,*,#248,.T.);
#248 = EDGE_CURVE('',#249,#249,#251,.T.);
#249 = VERTEX_POINT('',#250);
#250 = CARTESIAN_POINT('',(15.,85.,30.));
#251 = CIRCLE('',#252,15.);
#252 = AXIS2_PLACEMENT_3D('',#253,#254,#255);
#253 = CARTESIAN_POINT('',(15.,70.,30.));
#254 = DIRECTION('',(-1.,-1.232595164408E-32,-1.110223024625E-16));
#255 = DIRECTION('',(0.,1.,-1.110223024625E-16));
#256 = PLANE('',#257);
#257 = AXIS2_PLACEMENT_3D('',#258,#259,#260);
#258 = CARTESIAN_POINT('',(15.,75.,30.));
#259 = DIRECTION('',(1.,0.,0.));
#260 = DIRECTION('',(0.,0.,1.));
#261 = ADVANCED_FACE('',(#262),#281,.F.);
#262 = FACE_BOUND('',#263,.F.);
#263 = EDGE_LOOP('',(#264,#265,#273,#279,#280));
#264 = ORIENTED_EDGE('',*,*,#71,.F.);
#265 = ORIENTED_EDGE('',*,*,#266,.T.);
#266 = EDGE_CURVE('',#72,#267,#269,.T.);
#267 = VERTEX_POINT('',#268);
#268 = CARTESIAN_POINT('',(15.,100.,50.));
#269 = LINE('',#270,#271);
#270 = CARTESIAN_POINT('',(-5.551115123126E-15,100.,50.));
#271 = VECTOR('',#272,1.);
#272 = DIRECTION('',(1.,-1.110223024625E-16,1.110223024625E-16));
#273 = ORIENTED_EDGE('',*,*,#274,.T.);
#274 = EDGE_CURVE('',#267,#230,#275,.T.);
#275 = LINE('',#276,#277);
#276 = CARTESIAN_POINT('',(15.,100.,50.));
#277 = VECTOR('',#278,1.);
#278 = DIRECTION('',(0.,-1.,1.110223024625E-16));
#279 = ORIENTED_EDGE('',*,*,#237,.T.);
#280 = ORIENTED_EDGE('',*,*,#129,.F.);
#281 = PLANE('',#282);
#282 = AXIS2_PLACEMENT_3D('',#283,#284,#285);
#283 = CARTESIAN_POINT('',(-5.551115123126E-15,100.,50.));
#284 = DIRECTION('',(1.110223024625E-16,-1.110223024625E-16,-1.));
#285 = DIRECTION('',(0.,-1.,1.110223024625E-16));
#286 = ADVANCED_FACE('',(#287),#305,.F.);
#287 = FACE_BOUND('',#288,.F.);
#288 = EDGE_LOOP('',(#289,#290,#291,#299));
#289 = ORIENTED_EDGE('',*,*,#95,.T.);
#290 = ORIENTED_EDGE('',*,*,#155,.T.);
#291 = ORIENTED_EDGE('',*,*,#292,.F.);
#292 = EDGE_CURVE('',#293,#156,#295,.T.);
#293 = VERTEX_POINT('',#294);
#294 = CARTESIAN_POINT('',(50.,0.,0.));
#295 = LINE('',#296,#297);
#296 = CARTESIAN_POINT('',(50.,0.,0.));
#297 = VECTOR('',#298,1.);
#298 = DIRECTION('',(0.,0.,1.));
#299 = ORIENTED_EDGE('',*,*,#300,.F.);
#300 = EDGE_CURVE('',#88,#293,#301,.T.);
#301 = LINE('',#302,#303);
#302 = CARTESIAN_POINT('',(0.,0.,0.));
#303 = VECTOR('',#304,1.);
#304 = DIRECTION('',(1.,0.,0.));
#305 = PLANE('',#306);
#306 = AXIS2_PLACEMENT_3D('',#307,#308,#309);
#307 = CARTESIAN_POINT('',(0.,0.,0.));
#308 = DIRECTION('',(0.,1.,0.));
#309 = DIRECTION('',(1.,0.,0.));
#310 = ADVANCED_FACE('',(#311,#329),#365,.F.);
#311 = FACE_BOUND('',#312,.F.);
#312 = EDGE_LOOP('',(#313,#314,#322,#328));
#313 = ORIENTED_EDGE('',*,*,#300,.T.);
#314 = ORIENTED_EDGE('',*,*,#315,.T.);
#315 = EDGE_CURVE('',#293,#316,#318,.T.);
#316 = VERTEX_POINT('',#317);
#317 = CARTESIAN_POINT('',(50.,100.,0.));
#318 = LINE('',#319,#320);
#319 = CARTESIAN_POINT('',(50.,0.,0.));
#320 = VECTOR('',#321,1.);
#321 = DIRECTION('',(0.,1.,0.));
#322 = ORIENTED_EDGE('',*,*,#323,.T.);
#323 = EDGE_CURVE('',#316,#80,#324,.T.);
#324 = LINE('',#325,#326);
#325 = CARTESIAN_POINT('',(50.,100.,0.));
#326 = VECTOR('',#327,1.);
#327 = DIRECTION('',(-1.,0.,0.));
#328 = ORIENTED_EDGE('',*,*,#87,.T.);
#329 = FACE_BOUND('',#330,.F.);
#330 = EDGE_LOOP('',(#331,#342,#350,#359));
#331 = ORIENTED_EDGE('',*,*,#332,.F.);
#332 = EDGE_CURVE('',#333,#335,#337,.T.);
#333 = VERTEX_POINT('',#334);
#334 = CARTESIAN_POINT('',(17.5,15.,0.));
#335 = VERTEX_POINT('',#336);
#336 = CARTESIAN_POINT('',(32.5,15.,0.));
#337 = CIRCLE('',#338,7.5);
#338 = AXIS2_PLACEMENT_3D('',#339,#340,#341);
#339 = CARTESIAN_POINT('',(25.,15.,0.));
#340 = DIRECTION('',(0.,0.,1.));
#341 = DIRECTION('',(1.,0.,0.));
#342 = ORIENTED_EDGE('',*,*,#343,.F.);
#343 = EDGE_CURVE('',#344,#333,#346,.T.);
#344 = VERTEX_POINT('',#345);
#345 = CARTESIAN_POINT('',(17.5,40.,0.));
#346 = LINE('',#347,#348);
#347 = CARTESIAN_POINT('',(17.5,45.,0.));
#348 = VECTOR('',#349,1.);
#349 = DIRECTION('',(0.,-1.,0.));
#350 = ORIENTED_EDGE('',*,*,#351,.F.);
#351 = EDGE_CURVE('',#352,#344,#354,.T.);
#352 = VERTEX_POINT('',#353);
#353 = CARTESIAN_POINT('',(32.5,40.,0.));
#354 = CIRCLE('',#355,7.5);
#355 = AXIS2_PLACEMENT_3D('',#356,#357,#358);
#356 = CARTESIAN_POINT('',(25.,40.,0.));
#357 = DIRECTION('',(0.,0.,1.));
#358 = DIRECTION('',(1.,0.,0.));
#359 = ORIENTED_EDGE('',*,*,#360,.F.);
#360 = EDGE_CURVE('',#335,#352,#361,.T.);
#361 = LINE('',#362,#363);
#362 = CARTESIAN_POINT('',(32.5,32.5,0.));
#363 = VECTOR('',#364,1.);
#364 = DIRECTION('',(0.,1.,0.));
#365 = PLANE('',#366);
#366 = AXIS2_PLACEMENT_3D('',#367,#368,#369);
#367 = CARTESIAN_POINT('',(25.,50.,0.));
#368 = DIRECTION('',(0.,0.,1.));
#369 = DIRECTION('',(1.,0.,0.));
#370 = ADVANCED_FACE('',(#371),#382,.F.);
#371 = FACE_BOUND('',#372,.T.);
#372 = EDGE_LOOP('',(#373,#374,#380,#381));
#373 = ORIENTED_EDGE('',*,*,#111,.F.);
#374 = ORIENTED_EDGE('',*,*,#375,.T.);
#375 = EDGE_CURVE('',#112,#249,#376,.T.);
#376 = LINE('',#377,#378);
#377 = CARTESIAN_POINT('',(-3.330669073875E-15,85.,30.));
#378 = VECTOR('',#379,1.);
#379 = DIRECTION('',(1.,-1.110223024625E-16,1.110223024625E-16));
#380 = ORIENTED_EDGE('',*,*,#248,.F.);
#381 = ORIENTED_EDGE('',*,*,#375,.F.);
#382 = CYLINDRICAL_SURFACE('',#383,15.);
#383 = AXIS2_PLACEMENT_3D('',#384,#385,#386);
#384 = CARTESIAN_POINT('',(-3.330669073875E-15,70.,30.));
#385 = DIRECTION('',(-1.,-1.232595164408E-32,-1.110223024625E-16));
#386 = DIRECTION('',(0.,1.,-1.110223024625E-16));
#387 = ADVANCED_FACE('',(#388),#398,.F.);
#388 = FACE_BOUND('',#389,.T.);
#389 = EDGE_LOOP('',(#390,#391,#397));
#390 = ORIENTED_EDGE('',*,*,#171,.T.);
#391 = ORIENTED_EDGE('',*,*,#392,.T.);
#392 = EDGE_CURVE('',#164,#230,#393,.T.);
#393 = LINE('',#394,#395);
#394 = CARTESIAN_POINT('',(50.,90.,10.));
#395 = VECTOR('',#396,1.);
#396 = DIRECTION('',(-0.658504607869,1.67105594852E-16,0.752576694707));
#397 = ORIENTED_EDGE('',*,*,#229,.T.);
#398 = PLANE('',#399);
#399 = AXIS2_PLACEMENT_3D('',#400,#401,#402);
#400 = CARTESIAN_POINT('',(27.037682265918,90.,24.537682265918));
#401 = DIRECTION('',(0.,1.,-3.552713678801E-16));
#402 = DIRECTION('',(0.,3.552713678801E-16,1.));
#403 = ADVANCED_FACE('',(#404),#423,.F.);
#404 = FACE_BOUND('',#405,.F.);
#405 = EDGE_LOOP('',(#406,#407,#408,#416,#422));
#406 = ORIENTED_EDGE('',*,*,#292,.T.);
#407 = ORIENTED_EDGE('',*,*,#163,.T.);
#408 = ORIENTED_EDGE('',*,*,#409,.T.);
#409 = EDGE_CURVE('',#164,#410,#412,.T.);
#410 = VERTEX_POINT('',#411);
#411 = CARTESIAN_POINT('',(50.,100.,10.));
#412 = LINE('',#413,#414);
#413 = CARTESIAN_POINT('',(50.,0.,10.));
#414 = VECTOR('',#415,1.);
#415 = DIRECTION('',(0.,1.,0.));
#416 = ORIENTED_EDGE('',*,*,#417,.F.);
#417 = EDGE_CURVE('',#316,#410,#418,.T.);
#418 = LINE('',#419,#420);
#419 = CARTESIAN_POINT('',(50.,100.,0.));
#420 = VECTOR('',#421,1.);
#421 = DIRECTION('',(0.,0.,1.));
#422 = ORIENTED_EDGE('',*,*,#315,.F.);
#423 = PLANE('',#424);
#424 = AXIS2_PLACEMENT_3D('',#425,#426,#427);
#425 = CARTESIAN_POINT('',(50.,0.,0.));
#426 = DIRECTION('',(-1.,0.,0.));
#427 = DIRECTION('',(0.,1.,0.));
#428 = ADVANCED_FACE('',(#429),#445,.F.);
#429 = FACE_BOUND('',#430,.F.);
#430 = EDGE_LOOP('',(#431,#432,#438,#439));
#431 = ORIENTED_EDGE('',*,*,#187,.F.);
#432 = ORIENTED_EDGE('',*,*,#433,.T.);
#433 = EDGE_CURVE('',#188,#333,#434,.T.);
#434 = LINE('',#435,#436);
#435 = CARTESIAN_POINT('',(17.5,15.,10.));
#436 = VECTOR('',#437,1.);
#437 = DIRECTION('',(-0.,-0.,-1.));
#438 = ORIENTED_EDGE('',*,*,#332,.T.);
#439 = ORIENTED_EDGE('',*,*,#440,.F.);
#440 = EDGE_CURVE('',#190,#335,#441,.T.);
#441 = LINE('',#442,#443);
#442 = CARTESIAN_POINT('',(32.5,15.,10.));
#443 = VECTOR('',#444,1.);
#444 = DIRECTION('',(-0.,-0.,-1.));
#445 = CYLINDRICAL_SURFACE('',#446,7.5);
#446 = AXIS2_PLACEMENT_3D('',#447,#448,#449);
#447 = CARTESIAN_POINT('',(25.,15.,10.));
#448 = DIRECTION('',(0.,0.,1.));
#449 = DIRECTION('',(1.,0.,0.));
#450 = ADVANCED_FACE('',(#451),#462,.F.);
#451 = FACE_BOUND('',#452,.F.);
#452 = EDGE_LOOP('',(#453,#454,#460,#461));
#453 = ORIENTED_EDGE('',*,*,#198,.F.);
#454 = ORIENTED_EDGE('',*,*,#455,.T.);
#455 = EDGE_CURVE('',#199,#344,#456,.T.);
#456 = LINE('',#457,#458);
#457 = CARTESIAN_POINT('',(17.5,40.,10.));
#458 = VECTOR('',#459,1.);
#459 = DIRECTION('',(-0.,-0.,-1.));
#460 = ORIENTED_EDGE('',*,*,#343,.T.);
#461 = ORIENTED_EDGE('',*,*,#433,.F.);
#462 = PLANE('',#463);
#463 = AXIS2_PLACEMENT_3D('',#464,#465,#466);
#464 = CARTESIAN_POINT('',(17.5,40.,10.));
#465 = DIRECTION('',(-1.,0.,0.));
#466 = DIRECTION('',(0.,-1.,0.));
#467 = ADVANCED_FACE('',(#468),#479,.F.);
#468 = FACE_BOUND('',#469,.F.);
#469 = EDGE_LOOP('',(#470,#471,#472,#473));
#470 = ORIENTED_EDGE('',*,*,#215,.F.);
#471 = ORIENTED_EDGE('',*,*,#440,.T.);
#472 = ORIENTED_EDGE('',*,*,#360,.T.);
#473 = ORIENTED_EDGE('',*,*,#474,.F.);
#474 = EDGE_CURVE('',#207,#352,#475,.T.);
#475 = LINE('',#476,#477);
#476 = CARTESIAN_POINT('',(32.5,40.,10.));
#477 = VECTOR('',#478,1.);
#478 = DIRECTION('',(-0.,-0.,-1.));
#479 = PLANE('',#480);
#480 = AXIS2_PLACEMENT_3D('',#481,#482,#483);
#481 = CARTESIAN_POINT('',(32.5,15.,10.));
#482 = DIRECTION('',(1.,0.,0.));
#483 = DIRECTION('',(0.,1.,0.));
#484 = ADVANCED_FACE('',(#485),#491,.F.);
#485 = FACE_BOUND('',#486,.F.);
#486 = EDGE_LOOP('',(#487,#488,#489,#490));
#487 = ORIENTED_EDGE('',*,*,#206,.F.);
#488 = ORIENTED_EDGE('',*,*,#474,.T.);
#489 = ORIENTED_EDGE('',*,*,#351,.T.);
#490 = ORIENTED_EDGE('',*,*,#455,.F.);
#491 = CYLINDRICAL_SURFACE('',#492,7.5);
#492 = AXIS2_PLACEMENT_3D('',#493,#494,#495);
#493 = CARTESIAN_POINT('',(25.,40.,10.));
#494 = DIRECTION('',(0.,0.,1.));
#495 = DIRECTION('',(1.,0.,0.));
#496 = ADVANCED_FACE('',(#497),#508,.T.);
#497 = FACE_BOUND('',#498,.T.);
#498 = EDGE_LOOP('',(#499,#500,#506,#507));
#499 = ORIENTED_EDGE('',*,*,#409,.T.);
#500 = ORIENTED_EDGE('',*,*,#501,.T.);
#501 = EDGE_CURVE('',#410,#267,#502,.T.);
#502 = LINE('',#503,#504);
#503 = CARTESIAN_POINT('',(50.,100.,10.));
#504 = VECTOR('',#505,1.);
#505 = DIRECTION('',(-0.658504607869,1.67105594852E-16,0.752576694707));
#506 = ORIENTED_EDGE('',*,*,#274,.T.);
#507 = ORIENTED_EDGE('',*,*,#392,.F.);
#508 = PLANE('',#509);
#509 = AXIS2_PLACEMENT_3D('',#510,#511,#512);
#510 = CARTESIAN_POINT('',(50.,90.,10.));
#511 = DIRECTION('',(0.752576694707,1.462173954955E-16,0.658504607869));
#512 = DIRECTION('',(-0.658504607869,1.67105594852E-16,0.752576694707));
#513 = ADVANCED_FACE('',(#514),#521,.T.);
#514 = FACE_BOUND('',#515,.T.);
#515 = EDGE_LOOP('',(#516,#517,#518,#519,#520));
#516 = ORIENTED_EDGE('',*,*,#417,.F.);
#517 = ORIENTED_EDGE('',*,*,#323,.T.);
#518 = ORIENTED_EDGE('',*,*,#79,.T.);
#519 = ORIENTED_EDGE('',*,*,#266,.T.);
#520 = ORIENTED_EDGE('',*,*,#501,.F.);
#521 = PLANE('',#522);
#522 = AXIS2_PLACEMENT_3D('',#523,#524,#525);
#523 = CARTESIAN_POINT('',(20.150906557819,100.,20.457518703769));
#524 = DIRECTION('',(0.,1.,0.));
#525 = DIRECTION('',(0.,0.,1.));
#526 = ( GEOMETRIC_REPRESENTATION_CONTEXT(3) 
GLOBAL_UNCERTAINTY_ASSIGNED_CONTEXT((#530)) GLOBAL_UNIT_ASSIGNED_CONTEXT
((#527,#528,#529)) REPRESENTATION_CONTEXT('Context #1',
  '3D Context with UNIT and UNCERTAINTY') );
#527 = ( LENGTH_UNIT() NAMED_UNIT(*) SI_UNIT(.MILLI.,.METRE.) );
#528 = ( NAMED_UNIT(*) PLANE_ANGLE_UNIT() SI_UNIT($,.RADIAN.) );
#529 = ( NAMED_UNIT(*) SI_UNIT($,.STERADIAN.) SOLID_ANGLE_UNIT() );
#530 = UNCERTAINTY_MEASURE_WITH_UNIT(LENGTH_MEASURE(1.E-05),#527,
  'distance_accuracy_value','confusion accuracy');
#531 = PRODUCT_RELATED_PRODUCT_CATEGORY('part',$,(#7));
ENDSEC;
END-ISO-10303-21;
