ISO-10303-21;
HEADER;
FILE_DESCRIPTION(('FreeCAD Model'),'2;1');
FILE_NAME('Open CASCADE Shape Model','2026-09-10T08:59:00',('Author'),(
    ''),'Open CASCADE STEP processor 7.8','FreeCAD','Unknown');
FILE_SCHEMA(('AUTOMOTIVE_DESIGN { 1 0 10303 214 1 1 1 1 }'));
ENDSEC;
DATA;
#1 = APPLICATION_PROTOCOL_DEFINITION('international standard',
  'automotive_design',2000,#2);
#2 = APPLICATION_CONTEXT(
  'core data for automotive mechanical design processes');
#3 = SHAPE_DEFINITION_REPRESENTATION(#4,#10);
#4 = PRODUCT_DEFINITION_SHAPE('','',#5);
#5 = PRODUCT_DEFINITION('design','',#6,#9);
#6 = PRODUCT_DEFINITION_FORMATION('','',#7);
#7 = PRODUCT('corpo','corpo','',(#8));
#8 = PRODUCT_CONTEXT('',#2,'mechanical');
#9 = PRODUCT_DEFINITION_CONTEXT('part definition',#2,'design');
#10 = ADVANCED_BREP_SHAPE_REPRESENTATION('',(#11,#15),#577);
#11 = AXIS2_PLACEMENT_3D('',#12,#13,#14);
#12 = CARTESIAN_POINT('',(0.,0.,0.));
#13 = DIRECTION('',(0.,0.,1.));
#14 = DIRECTION('',(1.,0.,-0.));
#15 = MANIFOLD_SOLID_BREP('',#16);
#16 = CLOSED_SHELL('',(#17,#157,#188,#212,#271,#295,#354,#370,#387,#398,
    #415,#432,#464,#488,#512,#530,#548,#560));
#17 = ADVANCED_FACE('',(#18,#116),#152,.T.);
#18 = FACE_BOUND('',#19,.T.);
#19 = EDGE_LOOP('',(#20,#30,#38,#46,#54,#62,#70,#78,#86,#94,#102,#110));
#20 = ORIENTED_EDGE('',*,*,#21,.T.);
#21 = EDGE_CURVE('',#22,#24,#26,.T.);
#22 = VERTEX_POINT('',#23);
#23 = CARTESIAN_POINT('',(100.,50.,10.));
#24 = VERTEX_POINT('',#25);
#25 = CARTESIAN_POINT('',(0.,50.,10.));
#26 = LINE('',#27,#28);
#27 = CARTESIAN_POINT('',(100.,50.,10.));
#28 = VECTOR('',#29,1.);
#29 = DIRECTION('',(-1.,0.,0.));
#30 = ORIENTED_EDGE('',*,*,#31,.T.);
#31 = EDGE_CURVE('',#24,#32,#34,.T.);
#32 = VERTEX_POINT('',#33);
#33 = CARTESIAN_POINT('',(0.,0.,10.));
#34 = LINE('',#35,#36);
#35 = CARTESIAN_POINT('',(0.,50.,10.));
#36 = VECTOR('',#37,1.);
#37 = DIRECTION('',(0.,-1.,0.));
#38 = ORIENTED_EDGE('',*,*,#39,.T.);
#39 = EDGE_CURVE('',#32,#40,#42,.T.);
#40 = VERTEX_POINT('',#41);
#41 = CARTESIAN_POINT('',(30.,1.110223024625E-15,10.));
#42 = LINE('',#43,#44);
#43 = CARTESIAN_POINT('',(0.,0.,10.));
#44 = VECTOR('',#45,1.);
#45 = DIRECTION('',(1.,0.,0.));
#46 = ORIENTED_EDGE('',*,*,#47,.F.);
#47 = EDGE_CURVE('',#48,#40,#50,.T.);
#48 = VERTEX_POINT('',#49);
#49 = CARTESIAN_POINT('',(30.,10.,10.));
#50 = LINE('',#51,#52);
#51 = CARTESIAN_POINT('',(30.,12.5,10.));
#52 = VECTOR('',#53,1.);
#53 = DIRECTION('',(0.,-1.,0.));
#54 = ORIENTED_EDGE('',*,*,#55,.F.);
#55 = EDGE_CURVE('',#56,#48,#58,.T.);
#56 = VERTEX_POINT('',#57);
#57 = CARTESIAN_POINT('',(46.,10.,10.));
#58 = LINE('',#59,#60);
#59 = CARTESIAN_POINT('',(50.,10.,10.));
#60 = VECTOR('',#61,1.);
#61 = DIRECTION('',(-1.,0.,0.));
#62 = ORIENTED_EDGE('',*,*,#63,.T.);
#63 = EDGE_CURVE('',#56,#64,#66,.T.);
#64 = VERTEX_POINT('',#65);
#65 = CARTESIAN_POINT('',(46.,30.,10.));
#66 = LINE('',#67,#68);
#67 = CARTESIAN_POINT('',(46.,10.,10.));
#68 = VECTOR('',#69,1.);
#69 = DIRECTION('',(0.,1.,-1.110223024625E-16));
#70 = ORIENTED_EDGE('',*,*,#71,.T.);
#71 = EDGE_CURVE('',#64,#72,#74,.T.);
#72 = VERTEX_POINT('',#73);
#73 = CARTESIAN_POINT('',(54.,30.,10.));
#74 = LINE('',#75,#76);
#75 = CARTESIAN_POINT('',(46.,30.,10.));
#76 = VECTOR('',#77,1.);
#77 = DIRECTION('',(1.,-1.110223024625E-16,1.110223024625E-16));
#78 = ORIENTED_EDGE('',*,*,#79,.F.);
#79 = EDGE_CURVE('',#80,#72,#82,.T.);
#80 = VERTEX_POINT('',#81);
#81 = CARTESIAN_POINT('',(54.,10.,10.));
#82 = LINE('',#83,#84);
#83 = CARTESIAN_POINT('',(54.,10.,10.));
#84 = VECTOR('',#85,1.);
#85 = DIRECTION('',(0.,1.,-1.110223024625E-16));
#86 = ORIENTED_EDGE('',*,*,#87,.F.);
#87 = EDGE_CURVE('',#88,#80,#90,.T.);
#88 = VERTEX_POINT('',#89);
#89 = CARTESIAN_POINT('',(70.,10.,10.));
#90 = LINE('',#91,#92);
#91 = CARTESIAN_POINT('',(50.,10.,10.));
#92 = VECTOR('',#93,1.);
#93 = DIRECTION('',(-1.,0.,0.));
#94 = ORIENTED_EDGE('',*,*,#95,.F.);
#95 = EDGE_CURVE('',#96,#88,#98,.T.);
#96 = VERTEX_POINT('',#97);
#97 = CARTESIAN_POINT('',(70.,1.110223024625E-15,10.));
#98 = LINE('',#99,#100);
#99 = CARTESIAN_POINT('',(70.,12.5,10.));
#100 = VECTOR('',#101,1.);
#101 = DIRECTION('',(0.,1.,0.));
#102 = ORIENTED_EDGE('',*,*,#103,.T.);
#103 = EDGE_CURVE('',#96,#104,#106,.T.);
#104 = VERTEX_POINT('',#105);
#105 = CARTESIAN_POINT('',(100.,0.,10.));
#106 = LINE('',#107,#108);
#107 = CARTESIAN_POINT('',(0.,0.,10.));
#108 = VECTOR('',#109,1.);
#109 = DIRECTION('',(1.,0.,0.));
#110 = ORIENTED_EDGE('',*,*,#111,.T.);
#111 = EDGE_CURVE('',#104,#22,#112,.T.);
#112 = LINE('',#113,#114);
#113 = CARTESIAN_POINT('',(100.,0.,10.));
#114 = VECTOR('',#115,1.);
#115 = DIRECTION('',(0.,1.,0.));
#116 = FACE_BOUND('',#117,.T.);
#117 = EDGE_LOOP('',(#118,#129,#137,#146));
#118 = ORIENTED_EDGE('',*,*,#119,.F.);
#119 = EDGE_CURVE('',#120,#122,#124,.T.);
#120 = VERTEX_POINT('',#121);
#121 = CARTESIAN_POINT('',(37.5,47.5,10.));
#122 = VERTEX_POINT('',#123);
#123 = CARTESIAN_POINT('',(37.5,32.5,10.));
#124 = CIRCLE('',#125,7.5);
#125 = AXIS2_PLACEMENT_3D('',#126,#127,#128);
#126 = CARTESIAN_POINT('',(37.5,40.,10.));
#127 = DIRECTION('',(0.,0.,1.));
#128 = DIRECTION('',(1.,0.,0.));
#129 = ORIENTED_EDGE('',*,*,#130,.F.);
#130 = EDGE_CURVE('',#131,#120,#133,.T.);
#131 = VERTEX_POINT('',#132);
#132 = CARTESIAN_POINT('',(62.5,47.5,10.));
#133 = LINE('',#134,#135);
#134 = CARTESIAN_POINT('',(62.5,47.5,10.));
#135 = VECTOR('',#136,1.);
#136 = DIRECTION('',(-1.,0.,0.));
#137 = ORIENTED_EDGE('',*,*,#138,.F.);
#138 = EDGE_CURVE('',#139,#131,#141,.T.);
#139 = VERTEX_POINT('',#140);
#140 = CARTESIAN_POINT('',(62.5,32.5,10.));
#141 = CIRCLE('',#142,7.5);
#142 = AXIS2_PLACEMENT_3D('',#143,#144,#145);
#143 = CARTESIAN_POINT('',(62.5,40.,10.));
#144 = DIRECTION('',(0.,0.,1.));
#145 = DIRECTION('',(1.,0.,0.));
#146 = ORIENTED_EDGE('',*,*,#147,.F.);
#147 = EDGE_CURVE('',#122,#139,#148,.T.);
#148 = LINE('',#149,#150);
#149 = CARTESIAN_POINT('',(37.5,32.5,10.));
#150 = VECTOR('',#151,1.);
#151 = DIRECTION('',(1.,0.,0.));
#152 = PLANE('',#153);
#153 = AXIS2_PLACEMENT_3D('',#154,#155,#156);
#154 = CARTESIAN_POINT('',(50.,25.,10.));
#155 = DIRECTION('',(0.,0.,1.));
#156 = DIRECTION('',(1.,0.,0.));
#157 = ADVANCED_FACE('',(#158),#183,.F.);
#158 = FACE_BOUND('',#159,.F.);
#159 = EDGE_LOOP('',(#160,#168,#169,#177));
#160 = ORIENTED_EDGE('',*,*,#161,.T.);
#161 = EDGE_CURVE('',#162,#22,#164,.T.);
#162 = VERTEX_POINT('',#163);
#163 = CARTESIAN_POINT('',(100.,50.,0.));
#164 = LINE('',#165,#166);
#165 = CARTESIAN_POINT('',(100.,50.,0.));
#166 = VECTOR('',#167,1.);
#167 = DIRECTION('',(0.,0.,1.));
#168 = ORIENTED_EDGE('',*,*,#21,.T.);
#169 = ORIENTED_EDGE('',*,*,#170,.F.);
#170 = EDGE_CURVE('',#171,#24,#173,.T.);
#171 = VERTEX_POINT('',#172);
#172 = CARTESIAN_POINT('',(0.,50.,0.));
#173 = LINE('',#174,#175);
#174 = CARTESIAN_POINT('',(0.,50.,0.));
#175 = VECTOR('',#176,1.);
#176 = DIRECTION('',(0.,0.,1.));
#177 = ORIENTED_EDGE('',*,*,#178,.F.);
#178 = EDGE_CURVE('',#162,#171,#179,.T.);
#179 = LINE('',#180,#181);
#180 = CARTESIAN_POINT('',(100.,50.,0.));
#181 = VECTOR('',#182,1.);
#182 = DIRECTION('',(-1.,0.,0.));
#183 = PLANE('',#184);
#184 = AXIS2_PLACEMENT_3D('',#185,#186,#187);
#185 = CARTESIAN_POINT('',(100.,50.,0.));
#186 = DIRECTION('',(0.,-1.,0.));
#187 = DIRECTION('',(-1.,0.,0.));
#188 = ADVANCED_FACE('',(#189),#207,.F.);
#189 = FACE_BOUND('',#190,.F.);
#190 = EDGE_LOOP('',(#191,#199,#200,#201));
#191 = ORIENTED_EDGE('',*,*,#192,.T.);
#192 = EDGE_CURVE('',#193,#104,#195,.T.);
#193 = VERTEX_POINT('',#194);
#194 = CARTESIAN_POINT('',(100.,0.,0.));
#195 = LINE('',#196,#197);
#196 = CARTESIAN_POINT('',(100.,0.,0.));
#197 = VECTOR('',#198,1.);
#198 = DIRECTION('',(0.,0.,1.));
#199 = ORIENTED_EDGE('',*,*,#111,.T.);
#200 = ORIENTED_EDGE('',*,*,#161,.F.);
#201 = ORIENTED_EDGE('',*,*,#202,.F.);
#202 = EDGE_CURVE('',#193,#162,#203,.T.);
#203 = LINE('',#204,#205);
#204 = CARTESIAN_POINT('',(100.,0.,0.));
#205 = VECTOR('',#206,1.);
#206 = DIRECTION('',(0.,1.,0.));
#207 = PLANE('',#208);
#208 = AXIS2_PLACEMENT_3D('',#209,#210,#211);
#209 = CARTESIAN_POINT('',(100.,0.,0.));
#210 = DIRECTION('',(-1.,0.,0.));
#211 = DIRECTION('',(0.,1.,0.));
#212 = ADVANCED_FACE('',(#213,#255),#266,.T.);
#213 = FACE_BOUND('',#214,.T.);
#214 = EDGE_LOOP('',(#215,#223,#224,#225,#233,#242,#248,#249));
#215 = ORIENTED_EDGE('',*,*,#216,.T.);
#216 = EDGE_CURVE('',#217,#193,#219,.T.);
#217 = VERTEX_POINT('',#218);
#218 = CARTESIAN_POINT('',(0.,0.,0.));
#219 = LINE('',#220,#221);
#220 = CARTESIAN_POINT('',(0.,0.,0.));
#221 = VECTOR('',#222,1.);
#222 = DIRECTION('',(1.,0.,0.));
#223 = ORIENTED_EDGE('',*,*,#192,.T.);
#224 = ORIENTED_EDGE('',*,*,#103,.F.);
#225 = ORIENTED_EDGE('',*,*,#226,.T.);
#226 = EDGE_CURVE('',#96,#227,#229,.T.);
#227 = VERTEX_POINT('',#228);
#228 = CARTESIAN_POINT('',(70.,1.110223024625E-14,50.));
#229 = LINE('',#230,#231);
#230 = CARTESIAN_POINT('',(70.,0.,0.));
#231 = VECTOR('',#232,1.);
#232 = DIRECTION('',(0.,2.22044604925E-16,1.));
#233 = ORIENTED_EDGE('',*,*,#234,.T.);
#234 = EDGE_CURVE('',#227,#235,#237,.T.);
#235 = VERTEX_POINT('',#236);
#236 = CARTESIAN_POINT('',(30.,1.110223024625E-14,50.));
#237 = CIRCLE('',#238,20.);
#238 = AXIS2_PLACEMENT_3D('',#239,#240,#241);
#239 = CARTESIAN_POINT('',(50.,1.110223024625E-14,50.));
#240 = DIRECTION('',(0.,-1.,2.22044604925E-16));
#241 = DIRECTION('',(1.,0.,0.));
#242 = ORIENTED_EDGE('',*,*,#243,.T.);
#243 = EDGE_CURVE('',#235,#40,#244,.T.);
#244 = LINE('',#245,#246);
#245 = CARTESIAN_POINT('',(30.,1.110223024625E-14,50.));
#246 = VECTOR('',#247,1.);
#247 = DIRECTION('',(0.,-2.22044604925E-16,-1.));
#248 = ORIENTED_EDGE('',*,*,#39,.F.);
#249 = ORIENTED_EDGE('',*,*,#250,.F.);
#250 = EDGE_CURVE('',#217,#32,#251,.T.);
#251 = LINE('',#252,#253);
#252 = CARTESIAN_POINT('',(0.,0.,0.));
#253 = VECTOR('',#254,1.);
#254 = DIRECTION('',(0.,0.,1.));
#255 = FACE_BOUND('',#256,.T.);
#256 = EDGE_LOOP('',(#257));
#257 = ORIENTED_EDGE('',*,*,#258,.F.);
#258 = EDGE_CURVE('',#259,#259,#261,.T.);
#259 = VERTEX_POINT('',#260);
#260 = CARTESIAN_POINT('',(62.5,1.110223024625E-14,50.));
#261 = CIRCLE('',#262,12.5);
#262 = AXIS2_PLACEMENT_3D('',#263,#264,#265);
#263 = CARTESIAN_POINT('',(50.,1.110223024625E-14,50.));
#264 = DIRECTION('',(0.,-1.,2.22044604925E-16));
#265 = DIRECTION('',(1.,0.,0.));
#266 = PLANE('',#267);
#267 = AXIS2_PLACEMENT_3D('',#268,#269,#270);
#268 = CARTESIAN_POINT('',(50.,4.227743379706E-15,21.227563509461));
#269 = DIRECTION('',(0.,-1.,2.30854440334E-16));
#270 = DIRECTION('',(0.,-2.30854440334E-16,-1.));
#271 = ADVANCED_FACE('',(#272),#290,.T.);
#272 = FACE_BOUND('',#273,.T.);
#273 = EDGE_LOOP('',(#274,#275,#276,#284));
#274 = ORIENTED_EDGE('',*,*,#226,.F.);
#275 = ORIENTED_EDGE('',*,*,#95,.T.);
#276 = ORIENTED_EDGE('',*,*,#277,.T.);
#277 = EDGE_CURVE('',#88,#278,#280,.T.);
#278 = VERTEX_POINT('',#279);
#279 = CARTESIAN_POINT('',(70.,10.,50.));
#280 = LINE('',#281,#282);
#281 = CARTESIAN_POINT('',(70.,10.,-2.22044604925E-15));
#282 = VECTOR('',#283,1.);
#283 = DIRECTION('',(0.,2.22044604925E-16,1.));
#284 = ORIENTED_EDGE('',*,*,#285,.F.);
#285 = EDGE_CURVE('',#227,#278,#286,.T.);
#286 = LINE('',#287,#288);
#287 = CARTESIAN_POINT('',(70.,1.110223024625E-14,50.));
#288 = VECTOR('',#289,1.);
#289 = DIRECTION('',(0.,1.,-2.22044604925E-16));
#290 = PLANE('',#291);
#291 = AXIS2_PLACEMENT_3D('',#292,#293,#294);
#292 = CARTESIAN_POINT('',(70.,0.,0.));
#293 = DIRECTION('',(1.,0.,0.));
#294 = DIRECTION('',(0.,2.22044604925E-16,1.));
#295 = ADVANCED_FACE('',(#296,#338),#349,.T.);
#296 = FACE_BOUND('',#297,.T.);
#297 = EDGE_LOOP('',(#298,#299,#300,#308,#316,#322,#323,#331));
#298 = ORIENTED_EDGE('',*,*,#277,.F.);
#299 = ORIENTED_EDGE('',*,*,#87,.T.);
#300 = ORIENTED_EDGE('',*,*,#301,.F.);
#301 = EDGE_CURVE('',#302,#80,#304,.T.);
#302 = VERTEX_POINT('',#303);
#303 = CARTESIAN_POINT('',(54.,10.,35.));
#304 = LINE('',#305,#306);
#305 = CARTESIAN_POINT('',(54.,10.,35.));
#306 = VECTOR('',#307,1.);
#307 = DIRECTION('',(1.110223024625E-16,-1.110223024625E-16,-1.));
#308 = ORIENTED_EDGE('',*,*,#309,.F.);
#309 = EDGE_CURVE('',#310,#302,#312,.T.);
#310 = VERTEX_POINT('',#311);
#311 = CARTESIAN_POINT('',(46.,10.,35.));
#312 = LINE('',#313,#314);
#313 = CARTESIAN_POINT('',(46.,10.,35.));
#314 = VECTOR('',#315,1.);
#315 = DIRECTION('',(1.,-1.110223024625E-16,1.110223024625E-16));
#316 = ORIENTED_EDGE('',*,*,#317,.T.);
#317 = EDGE_CURVE('',#310,#56,#318,.T.);
#318 = LINE('',#319,#320);
#319 = CARTESIAN_POINT('',(46.,10.,35.));
#320 = VECTOR('',#321,1.);
#321 = DIRECTION('',(1.110223024625E-16,-1.110223024625E-16,-1.));
#322 = ORIENTED_EDGE('',*,*,#55,.T.);
#323 = ORIENTED_EDGE('',*,*,#324,.F.);
#324 = EDGE_CURVE('',#325,#48,#327,.T.);
#325 = VERTEX_POINT('',#326);
#326 = CARTESIAN_POINT('',(30.,10.,50.));
#327 = LINE('',#328,#329);
#328 = CARTESIAN_POINT('',(30.,10.,50.));
#329 = VECTOR('',#330,1.);
#330 = DIRECTION('',(0.,-2.22044604925E-16,-1.));
#331 = ORIENTED_EDGE('',*,*,#332,.F.);
#332 = EDGE_CURVE('',#278,#325,#333,.T.);
#333 = CIRCLE('',#334,20.);
#334 = AXIS2_PLACEMENT_3D('',#335,#336,#337);
#335 = CARTESIAN_POINT('',(50.,10.,50.));
#336 = DIRECTION('',(0.,-1.,2.22044604925E-16));
#337 = DIRECTION('',(1.,0.,0.));
#338 = FACE_BOUND('',#339,.T.);
#339 = EDGE_LOOP('',(#340));
#340 = ORIENTED_EDGE('',*,*,#341,.T.);
#341 = EDGE_CURVE('',#342,#342,#344,.T.);
#342 = VERTEX_POINT('',#343);
#343 = CARTESIAN_POINT('',(62.5,10.,50.));
#344 = CIRCLE('',#345,12.5);
#345 = AXIS2_PLACEMENT_3D('',#346,#347,#348);
#346 = CARTESIAN_POINT('',(50.,10.,50.));
#347 = DIRECTION('',(0.,-1.,2.22044604925E-16));
#348 = DIRECTION('',(1.,0.,0.));
#349 = PLANE('',#350);
#350 = AXIS2_PLACEMENT_3D('',#351,#352,#353);
#351 = CARTESIAN_POINT('',(50.,10.,36.07122401682));
#352 = DIRECTION('',(0.,1.,0.));
#353 = DIRECTION('',(0.,0.,1.));
#354 = ADVANCED_FACE('',(#355),#365,.T.);
#355 = FACE_BOUND('',#356,.T.);
#356 = EDGE_LOOP('',(#357,#358,#364));
#357 = ORIENTED_EDGE('',*,*,#79,.T.);
#358 = ORIENTED_EDGE('',*,*,#359,.T.);
#359 = EDGE_CURVE('',#72,#302,#360,.T.);
#360 = LINE('',#361,#362);
#361 = CARTESIAN_POINT('',(54.,30.,10.));
#362 = VECTOR('',#363,1.);
#363 = DIRECTION('',(-8.669385314553E-17,-0.624695047554,0.780868809443)
  );
#364 = ORIENTED_EDGE('',*,*,#301,.T.);
#365 = PLANE('',#366);
#366 = AXIS2_PLACEMENT_3D('',#367,#368,#369);
#367 = CARTESIAN_POINT('',(54.,16.753905296791,19.253905296791));
#368 = DIRECTION('',(1.,0.,2.84217094304E-16));
#369 = DIRECTION('',(-2.84217094304E-16,0.,1.));
#370 = ADVANCED_FACE('',(#371),#382,.F.);
#371 = FACE_BOUND('',#372,.F.);
#372 = EDGE_LOOP('',(#373,#374,#375,#376));
#373 = ORIENTED_EDGE('',*,*,#71,.T.);
#374 = ORIENTED_EDGE('',*,*,#359,.T.);
#375 = ORIENTED_EDGE('',*,*,#309,.F.);
#376 = ORIENTED_EDGE('',*,*,#377,.F.);
#377 = EDGE_CURVE('',#64,#310,#378,.T.);
#378 = LINE('',#379,#380);
#379 = CARTESIAN_POINT('',(46.,30.,10.));
#380 = VECTOR('',#381,1.);
#381 = DIRECTION('',(-8.669385314553E-17,-0.624695047554,0.780868809443)
  );
#382 = PLANE('',#383);
#383 = AXIS2_PLACEMENT_3D('',#384,#385,#386);
#384 = CARTESIAN_POINT('',(46.,30.,10.));
#385 = DIRECTION('',(-1.733877062911E-17,-0.780868809443,-0.624695047554
    ));
#386 = DIRECTION('',(-8.669385314553E-17,-0.624695047554,0.780868809443)
  );
#387 = ADVANCED_FACE('',(#388),#393,.F.);
#388 = FACE_BOUND('',#389,.F.);
#389 = EDGE_LOOP('',(#390,#391,#392));
#390 = ORIENTED_EDGE('',*,*,#63,.T.);
#391 = ORIENTED_EDGE('',*,*,#377,.T.);
#392 = ORIENTED_EDGE('',*,*,#317,.T.);
#393 = PLANE('',#394);
#394 = AXIS2_PLACEMENT_3D('',#395,#396,#397);
#395 = CARTESIAN_POINT('',(46.,16.753905296791,19.253905296791));
#396 = DIRECTION('',(1.,0.,2.84217094304E-16));
#397 = DIRECTION('',(-2.84217094304E-16,0.,1.));
#398 = ADVANCED_FACE('',(#399),#410,.T.);
#399 = FACE_BOUND('',#400,.T.);
#400 = EDGE_LOOP('',(#401,#402,#408,#409));
#401 = ORIENTED_EDGE('',*,*,#243,.F.);
#402 = ORIENTED_EDGE('',*,*,#403,.T.);
#403 = EDGE_CURVE('',#235,#325,#404,.T.);
#404 = LINE('',#405,#406);
#405 = CARTESIAN_POINT('',(30.,1.110223024625E-14,50.));
#406 = VECTOR('',#407,1.);
#407 = DIRECTION('',(0.,1.,-2.22044604925E-16));
#408 = ORIENTED_EDGE('',*,*,#324,.T.);
#409 = ORIENTED_EDGE('',*,*,#47,.T.);
#410 = PLANE('',#411);
#411 = AXIS2_PLACEMENT_3D('',#412,#413,#414);
#412 = CARTESIAN_POINT('',(30.,1.110223024625E-14,50.));
#413 = DIRECTION('',(-1.,0.,0.));
#414 = DIRECTION('',(0.,-2.22044604925E-16,-1.));
#415 = ADVANCED_FACE('',(#416),#427,.F.);
#416 = FACE_BOUND('',#417,.F.);
#417 = EDGE_LOOP('',(#418,#419,#420,#421));
#418 = ORIENTED_EDGE('',*,*,#170,.T.);
#419 = ORIENTED_EDGE('',*,*,#31,.T.);
#420 = ORIENTED_EDGE('',*,*,#250,.F.);
#421 = ORIENTED_EDGE('',*,*,#422,.F.);
#422 = EDGE_CURVE('',#171,#217,#423,.T.);
#423 = LINE('',#424,#425);
#424 = CARTESIAN_POINT('',(0.,50.,0.));
#425 = VECTOR('',#426,1.);
#426 = DIRECTION('',(0.,-1.,0.));
#427 = PLANE('',#428);
#428 = AXIS2_PLACEMENT_3D('',#429,#430,#431);
#429 = CARTESIAN_POINT('',(0.,50.,0.));
#430 = DIRECTION('',(1.,0.,0.));
#431 = DIRECTION('',(0.,-1.,0.));
#432 = ADVANCED_FACE('',(#433),#459,.F.);
#433 = FACE_BOUND('',#434,.F.);
#434 = EDGE_LOOP('',(#435,#436,#444,#453));
#435 = ORIENTED_EDGE('',*,*,#119,.F.);
#436 = ORIENTED_EDGE('',*,*,#437,.T.);
#437 = EDGE_CURVE('',#120,#438,#440,.T.);
#438 = VERTEX_POINT('',#439);
#439 = CARTESIAN_POINT('',(37.5,47.5,0.));
#440 = LINE('',#441,#442);
#441 = CARTESIAN_POINT('',(37.5,47.5,10.));
#442 = VECTOR('',#443,1.);
#443 = DIRECTION('',(-0.,-0.,-1.));
#444 = ORIENTED_EDGE('',*,*,#445,.T.);
#445 = EDGE_CURVE('',#438,#446,#448,.T.);
#446 = VERTEX_POINT('',#447);
#447 = CARTESIAN_POINT('',(37.5,32.5,0.));
#448 = CIRCLE('',#449,7.5);
#449 = AXIS2_PLACEMENT_3D('',#450,#451,#452);
#450 = CARTESIAN_POINT('',(37.5,40.,0.));
#451 = DIRECTION('',(0.,0.,1.));
#452 = DIRECTION('',(1.,0.,0.));
#453 = ORIENTED_EDGE('',*,*,#454,.F.);
#454 = EDGE_CURVE('',#122,#446,#455,.T.);
#455 = LINE('',#456,#457);
#456 = CARTESIAN_POINT('',(37.5,32.5,10.));
#457 = VECTOR('',#458,1.);
#458 = DIRECTION('',(-0.,-0.,-1.));
#459 = CYLINDRICAL_SURFACE('',#460,7.5);
#460 = AXIS2_PLACEMENT_3D('',#461,#462,#463);
#461 = CARTESIAN_POINT('',(37.5,40.,10.));
#462 = DIRECTION('',(0.,0.,1.));
#463 = DIRECTION('',(1.,0.,0.));
#464 = ADVANCED_FACE('',(#465),#483,.F.);
#465 = FACE_BOUND('',#466,.F.);
#466 = EDGE_LOOP('',(#467,#468,#476,#482));
#467 = ORIENTED_EDGE('',*,*,#130,.F.);
#468 = ORIENTED_EDGE('',*,*,#469,.T.);
#469 = EDGE_CURVE('',#131,#470,#472,.T.);
#470 = VERTEX_POINT('',#471);
#471 = CARTESIAN_POINT('',(62.5,47.5,0.));
#472 = LINE('',#473,#474);
#473 = CARTESIAN_POINT('',(62.5,47.5,10.));
#474 = VECTOR('',#475,1.);
#475 = DIRECTION('',(-0.,-0.,-1.));
#476 = ORIENTED_EDGE('',*,*,#477,.T.);
#477 = EDGE_CURVE('',#470,#438,#478,.T.);
#478 = LINE('',#479,#480);
#479 = CARTESIAN_POINT('',(56.25,47.5,0.));
#480 = VECTOR('',#481,1.);
#481 = DIRECTION('',(-1.,0.,0.));
#482 = ORIENTED_EDGE('',*,*,#437,.F.);
#483 = PLANE('',#484);
#484 = AXIS2_PLACEMENT_3D('',#485,#486,#487);
#485 = CARTESIAN_POINT('',(62.5,47.5,10.));
#486 = DIRECTION('',(0.,1.,0.));
#487 = DIRECTION('',(-1.,0.,0.));
#488 = ADVANCED_FACE('',(#489),#507,.F.);
#489 = FACE_BOUND('',#490,.F.);
#490 = EDGE_LOOP('',(#491,#492,#493,#501));
#491 = ORIENTED_EDGE('',*,*,#147,.F.);
#492 = ORIENTED_EDGE('',*,*,#454,.T.);
#493 = ORIENTED_EDGE('',*,*,#494,.T.);
#494 = EDGE_CURVE('',#446,#495,#497,.T.);
#495 = VERTEX_POINT('',#496);
#496 = CARTESIAN_POINT('',(62.5,32.5,0.));
#497 = LINE('',#498,#499);
#498 = CARTESIAN_POINT('',(43.75,32.5,0.));
#499 = VECTOR('',#500,1.);
#500 = DIRECTION('',(1.,0.,0.));
#501 = ORIENTED_EDGE('',*,*,#502,.F.);
#502 = EDGE_CURVE('',#139,#495,#503,.T.);
#503 = LINE('',#504,#505);
#504 = CARTESIAN_POINT('',(62.5,32.5,10.));
#505 = VECTOR('',#506,1.);
#506 = DIRECTION('',(-0.,-0.,-1.));
#507 = PLANE('',#508);
#508 = AXIS2_PLACEMENT_3D('',#509,#510,#511);
#509 = CARTESIAN_POINT('',(37.5,32.5,10.));
#510 = DIRECTION('',(0.,-1.,0.));
#511 = DIRECTION('',(1.,0.,0.));
#512 = ADVANCED_FACE('',(#513),#525,.F.);
#513 = FACE_BOUND('',#514,.F.);
#514 = EDGE_LOOP('',(#515,#516,#517,#524));
#515 = ORIENTED_EDGE('',*,*,#138,.F.);
#516 = ORIENTED_EDGE('',*,*,#502,.T.);
#517 = ORIENTED_EDGE('',*,*,#518,.T.);
#518 = EDGE_CURVE('',#495,#470,#519,.T.);
#519 = CIRCLE('',#520,7.5);
#520 = AXIS2_PLACEMENT_3D('',#521,#522,#523);
#521 = CARTESIAN_POINT('',(62.5,40.,0.));
#522 = DIRECTION('',(0.,0.,1.));
#523 = DIRECTION('',(1.,0.,0.));
#524 = ORIENTED_EDGE('',*,*,#469,.F.);
#525 = CYLINDRICAL_SURFACE('',#526,7.5);
#526 = AXIS2_PLACEMENT_3D('',#527,#528,#529);
#527 = CARTESIAN_POINT('',(62.5,40.,10.));
#528 = DIRECTION('',(0.,0.,1.));
#529 = DIRECTION('',(1.,0.,0.));
#530 = ADVANCED_FACE('',(#531,#537),#543,.T.);
#531 = FACE_BOUND('',#532,.T.);
#532 = EDGE_LOOP('',(#533,#534,#535,#536));
#533 = ORIENTED_EDGE('',*,*,#422,.F.);
#534 = ORIENTED_EDGE('',*,*,#178,.F.);
#535 = ORIENTED_EDGE('',*,*,#202,.F.);
#536 = ORIENTED_EDGE('',*,*,#216,.F.);
#537 = FACE_BOUND('',#538,.T.);
#538 = EDGE_LOOP('',(#539,#540,#541,#542));
#539 = ORIENTED_EDGE('',*,*,#445,.T.);
#540 = ORIENTED_EDGE('',*,*,#494,.T.);
#541 = ORIENTED_EDGE('',*,*,#518,.T.);
#542 = ORIENTED_EDGE('',*,*,#477,.T.);
#543 = PLANE('',#544);
#544 = AXIS2_PLACEMENT_3D('',#545,#546,#547);
#545 = CARTESIAN_POINT('',(50.,25.,0.));
#546 = DIRECTION('',(-0.,-0.,-1.));
#547 = DIRECTION('',(-1.,0.,0.));
#548 = ADVANCED_FACE('',(#549),#555,.T.);
#549 = FACE_BOUND('',#550,.T.);
#550 = EDGE_LOOP('',(#551,#552,#553,#554));
#551 = ORIENTED_EDGE('',*,*,#285,.T.);
#552 = ORIENTED_EDGE('',*,*,#332,.T.);
#553 = ORIENTED_EDGE('',*,*,#403,.F.);
#554 = ORIENTED_EDGE('',*,*,#234,.F.);
#555 = CYLINDRICAL_SURFACE('',#556,20.);
#556 = AXIS2_PLACEMENT_3D('',#557,#558,#559);
#557 = CARTESIAN_POINT('',(50.,1.110223024625E-14,50.));
#558 = DIRECTION('',(0.,-1.,2.22044604925E-16));
#559 = DIRECTION('',(1.,0.,0.));
#560 = ADVANCED_FACE('',(#561),#572,.F.);
#561 = FACE_BOUND('',#562,.F.);
#562 = EDGE_LOOP('',(#563,#564,#570,#571));
#563 = ORIENTED_EDGE('',*,*,#258,.F.);
#564 = ORIENTED_EDGE('',*,*,#565,.T.);
#565 = EDGE_CURVE('',#259,#342,#566,.T.);
#566 = LINE('',#567,#568);
#567 = CARTESIAN_POINT('',(62.5,1.110223024625E-14,50.));
#568 = VECTOR('',#569,1.);
#569 = DIRECTION('',(0.,1.,-2.22044604925E-16));
#570 = ORIENTED_EDGE('',*,*,#341,.T.);
#571 = ORIENTED_EDGE('',*,*,#565,.F.);
#572 = CYLINDRICAL_SURFACE('',#573,12.5);
#573 = AXIS2_PLACEMENT_3D('',#574,#575,#576);
#574 = CARTESIAN_POINT('',(50.,1.110223024625E-14,50.));
#575 = DIRECTION('',(0.,-1.,2.22044604925E-16));
#576 = DIRECTION('',(1.,0.,0.));
#577 = ( GEOMETRIC_REPRESENTATION_CONTEXT(3) 
GLOBAL_UNCERTAINTY_ASSIGNED_CONTEXT((#581)) GLOBAL_UNIT_ASSIGNED_CONTEXT
((#578,#579,#580)) REPRESENTATION_CONTEXT('Context #1',
  '3D Context with UNIT and UNCERTAINTY') );
#578 = ( LENGTH_UNIT() NAMED_UNIT(*) SI_UNIT(.MILLI.,.METRE.) );
#579 = ( NAMED_UNIT(*) PLANE_ANGLE_UNIT() SI_UNIT($,.RADIAN.) );
#580 = ( NAMED_UNIT(*) SI_UNIT($,.STERADIAN.) SOLID_ANGLE_UNIT() );
#581 = UNCERTAINTY_MEASURE_WITH_UNIT(LENGTH_MEASURE(5.E-05),#578,
  'distance_accuracy_value','confusion accuracy');
#582 = PRODUCT_RELATED_PRODUCT_CATEGORY('part',$,(#7));
ENDSEC;
END-ISO-10303-21;
